<?xml version="1.0" encoding="UTF-8" standalone="no"?>
<svg
   version="1.1"
   viewBox="0 0 128 128"
   id="svg867"
   xmlns="http://www.w3.org/2000/svg"
   xmlns:svg="http://www.w3.org/2000/svg">
  <defs
     id="defs871" />
  <path
     d="m119.42 95.989c-17.67 30.594-56.806 41.076-87.411 23.413-30.605-17.663-41.092-56.784-23.422-87.378 17.67-30.594 56.806-41.076 87.411-23.413 30.605 17.663 41.092 56.784 23.422 87.378"
     fill="#fd5"
     stroke-width=".19993"
     id="path845" />
  <path
     d="m95.987 8.6467c-10.1-5.8292-21.128-8.5747-32.008-8.5619l-55.403 95.925c5.429 9.4253 13.322 17.599 23.422 23.429 10.082 5.8187 21.088 8.5647 31.95 8.5619l55.432-95.975c-5.4282-9.4039-13.31-17.559-23.392-23.378z"
     fill="#999"
     stroke-width=".19993"
     id="path847" />
  <path
     d="m34.541 107.02 6.9271 3.9978-5.999 10.387-6.9271-3.9978z"
     fill="#fff"
     id="path849" />
  <path
     d="m67.992 127.97c3.3653-0.17755 6.7151-0.69569 9.9983-1.3943l47.113-81.417c-1.0365-3.192-1.7039-5.7024-4.1204-8.9951 0 0-52.991 91.95-52.991 91.807z"
     fill-opacity=".2"
     stroke-width=".19993"
     id="path851" />
  <path
     d="m88.532 13.536 6.9271 3.9978-9.9983 17.311-6.9271-3.9978z"
     fill="#fff"
     id="path853" />
  <path
     d="m119.44 31.983-55.407 95.931c3.2441-3e-3 6.4738-0.24966 9.6629-0.73906l49.935-86.458c-1.1706-3.0055-2.572-5.9246-4.1912-8.7347z"
     fill="#fff"
     stroke-width=".19993"
     id="path855" />
  <path
     d="m64.024 2.6865e-6c-3.2441 0.0033537-6.4738 0.24966-9.6629 0.73906l-49.935 86.458c1.1705 3.0055 2.572 5.9246 4.1912 8.7347z"
     fill="#fff"
     stroke-width=".19993"
     id="path857" />
  <g
     stroke-width="8"
     id="g10"
     transform="translate(0.564,-4.011)">
    <path
       d="m 35.908,28.011 h 55.056 c 4.6935,0 8.472,3.7785 8.472,8.472 v 63.056 c 0,4.6934 -3.7785,8.4719 -8.472,8.4719 H 35.908 c -4.6935,0 -8.472,-3.7785 -8.472,-8.4719 V 36.483 c 0,-4.6935 3.7785,-8.472 8.472,-8.472 z"
       fill="none"
       stroke="#000000"
       stroke-opacity="0.2"
       id="path4" />
    <path
       d="m 35.908,24.011 h 55.056 c 4.6935,0 8.472,3.7785 8.472,8.472 v 63.056 c 0,4.6935 -3.7785,8.4719 -8.472,8.4719 H 35.908 c -4.6935,0 -8.472,-3.7785 -8.472,-8.4719 V 32.483 c 0,-4.6935 3.7785,-8.472 8.472,-8.472 z"
       fill="#495aad"
       stroke="#ffffff"
       stroke-opacity="0.98995"
       id="path6" />
    <path
       d="m 51.436,84.011 v -40 h 12 c 0,0 12,0 12,12 0,12 -12,12 -12,12 h -12"
       fill="none"
       stroke="#ffffff"
       stroke-linecap="square"
       id="path8" />
  </g>
  <g
     transform="translate(-895.50599,-902.581)"
     id="g22">
    <path
       d="m 993.38,957.18 c -4.3625,0 -8.7117,1.6754 -12.012,5.0254 -5.5,5.5 -6.5445,13.986 -3.1445,20.486 l -26,26 v 6 l 2,2 h 10 l 3,-3 v -6 l 1,-1 h 6 l 6,-6 v -6 l 5,-5 c 6.5,3.6 14.744,2.3125 20.144,-3.1875 6.8,-6.7 6.7996,-17.599 0.1,-24.299 -3.35,-3.35 -7.7254,-5.0254 -12.088,-5.0254 z m 3.6387,8.3242 c 1.325,0 2.6504,0.5 3.6504,1.5 2.1,2 2.1,5.3004 0,7.4004 -2,2 -5.3008,2 -7.3008,0 -2,-2 -2,-5.3004 0,-7.4004 1,-1 2.3254,-1.5 3.6504,-1.5 z"
       fill-opacity="0.2"
       id="path12" />
    <path
       d="m 1005.5,958.21 c -6.7,-6.7 -17.5,-6.7 -24.1,0 -5.5,5.5 -6.5437,13.988 -3.1437,20.488 l -26,26 v 6 l 2,2 h 4 l 27,-27 c 6.5,3.6 14.744,2.3125 20.144,-3.1875 6.8,-6.7 6.8,-17.6 0.1,-24.3 m -4.8,12.2 c -2,2 -5.3,2 -7.3,0 -2,-2 -2,-5.3 0,-7.4 2,-2 5.3,-2 7.3,0 2.1,2 2.1,5.3 0,7.4"
       fill="#eda432"
       id="path14" />
    <path
       d="m 967.23,1009.7 v -6 l -9,9 h 6 z"
       fill="#d68c3a"
       id="path16" />
    <path
       d="m 980.23,996.69 v -6 l -12.056,12 h 6.0563 z"
       fill="#d68c3a"
       id="path18" />
    <path
       d="m 981.23,981.69 -29,29 2,2 29,-29 z"
       fill="#d68c3a"
       id="path20" />
  </g>
</svg>
