<?xml version="1.0" encoding="UTF-8" standalone="no"?>
<!-- Created with Inkscape (http://www.inkscape.org/) -->

<svg
   width="134.91248mm"
   height="137.19456mm"
   viewBox="0 0 134.91248 137.19457"
   version="1.1"
   id="svg5"
   inkscape:version="1.1.1 (1:1.1+202109281949+c3084ef5ed)"
   sodipodi:docname="symbolic_leaves_export_worse.svg"
   xmlns:inkscape="http://www.inkscape.org/namespaces/inkscape"
   xmlns:sodipodi="http://sodipodi.sourceforge.net/DTD/sodipodi-0.dtd"
   xmlns="http://www.w3.org/2000/svg"
   xmlns:svg="http://www.w3.org/2000/svg">
  <sodipodi:namedview
     id="namedview7"
     pagecolor="#ffffff"
     bordercolor="#666666"
     borderopacity="1.0"
     inkscape:pageshadow="2"
     inkscape:pageopacity="0.0"
     inkscape:pagecheckerboard="0"
     inkscape:document-units="mm"
     showgrid="false"
     inkscape:zoom="0.77771465"
     inkscape:cx="214.73171"
     inkscape:cy="372.2445"
     inkscape:window-width="1920"
     inkscape:window-height="1140"
     inkscape:window-x="0"
     inkscape:window-y="0"
     inkscape:window-maximized="1"
     inkscape:current-layer="layer1" />
  <defs
     id="defs2" />
  <g
     inkscape:label="Layer 1"
     inkscape:groupmode="layer"
     id="layer1"
     transform="translate(-40.200233,-49.924182)">
    <path
       class="fil7"
       d="m 129.56626,169.67032 c -0.0858,-0.43984 -0.12873,-1.10516 -0.12873,-2.0064 0,-1.58781 0.28966,-3.11141 0.86906,-4.55983 0.56873,-1.45921 1.35187,-2.73594 2.33903,-3.85174 0.98703,-1.10513 2.11361,-1.97419 3.39031,-2.59655 1.28752,-0.63295 2.60718,-0.94407 3.96984,-0.94407 1.8025,0 3.39044,0.49347 4.76373,1.49126 1.37332,0.98719 2.04924,2.18876 2.04924,3.58358 0,0.83689 -0.18236,1.53423 -0.55782,2.10296 -0.37563,0.55785 -0.84765,0.83689 -1.41625,0.83689 -0.54719,0 -1.21248,-0.21469 -1.99565,-0.64375 -0.78326,-0.42921 -1.52356,-0.76187 -2.19951,-1.01936 -0.6867,-0.24674 -1.69515,-0.37547 -3.03639,-0.37547 -1.44843,0 -2.82171,0.42919 -4.11999,1.28749 3.34751,0.31112 5.97624,0.78326 7.85375,1.39483 1.8884,0.6222 2.8325,1.79171 2.8325,3.50842 0,0.63298 -0.27894,1.148 -0.84752,1.55567 -0.56873,0.40776 -1.20172,0.61154 -1.9206,0.61154 -1.16942,0 -2.04923,-0.0644 -2.63938,-0.20378 -0.57937,-0.12873 -1.14797,-0.35404 -1.69516,-0.6545 -0.54719,-0.31111 -1.04079,-0.52577 -1.49139,-0.66516 -0.45063,-0.13952 -1.23377,-0.2039 -2.33893,-0.2039 -1.49139,0 -2.7145,0.45061 -3.68014,1.35187 z"
       id="path919-7"
       style="clip-rule:evenodd;fill:#f8c300;fill-rule:evenodd;stroke-width:0.315437;image-rendering:optimizeQuality;shape-rendering:geometricPrecision;text-rendering:geometricPrecision" />
    <path
       class="fil2"
       d="m 53.623686,108.22814 1.04076,1.54499 c -1.57719,1.04065 -2.66078,2.47845 -3.27235,4.30237 0.66517,-0.33266 1.39471,-0.50426 2.16721,-0.50426 1.22311,0 2.22093,0.42909 3.00419,1.28751 0.7833,0.85828 1.18018,1.88827 1.18018,3.07921 0,1.5986 -0.22532,2.78956 -0.67595,3.58358 -0.4506,0.79392 -1.13718,1.82392 -2.05999,3.06848 -0.92266,1.24465 -1.38405,2.28528 -1.38405,3.12216 0,0.75109 0.2039,1.49139 0.60091,2.19951 -1.82404,-0.50422 -3.62655,-1.41625 -5.39684,-2.73591 -1.77033,-1.31969 -3.22938,-2.82174 -4.36672,-4.50627 -1.14797,-1.6845 -1.7167,-3.30452 -1.7167,-4.86028 0,-1.37329 0.43997,-2.56422 1.31969,-3.55141 0.87982,-0.97625 1.85622,-1.46984 2.92905,-1.46984 1.06217,0 1.9206,0.42921 2.57498,1.28752 0.2897,-2.68235 1.64156,-4.63501 4.05563,-5.84736 z"
       id="path909-6"
       style="clip-rule:evenodd;fill:#c4bf66;fill-rule:evenodd;stroke-width:0.315437;image-rendering:optimizeQuality;shape-rendering:geometricPrecision;text-rendering:geometricPrecision" />
    <path
       class="fil2"
       d="m 116.73597,171.9318 -0.4249,1.81373 c -1.83555,-0.44859 -3.62659,-0.26521 -5.37969,0.52682 0.69625,0.26143 1.3182,0.67959 1.84355,1.24595 0.83181,0.89671 1.19581,1.92007 1.09914,3.0781 -0.0965,1.15797 -0.58176,2.1494 -1.45489,2.95933 -1.17201,1.08717 -2.19839,1.73192 -3.08698,1.94153 -0.8885,0.20957 -2.11056,0.40668 -3.65058,0.57652 -1.53999,0.17001 -2.6167,0.53945 -3.23025,1.10859 -0.55066,0.5108 -0.95474,1.16374 -1.2039,1.93638 -0.87081,-1.68019 -1.428,-3.62193 -1.664427,-5.81728 -0.236431,-2.19539 -0.127473,-4.28659 0.334056,-6.26603 0.454281,-1.9872 1.255211,-3.5059 2.395801,-4.56393 1.00682,-0.93394 2.17916,-1.4213 3.50118,-1.4477 1.31408,-0.0189 2.33997,0.36128 3.06958,1.14782 0.72235,0.77872 0.99147,1.69997 0.80723,2.76344 2.16357,-1.6118 4.51451,-1.94864 7.04508,-1.00327 z"
       id="path909-61"
       style="clip-rule:evenodd;fill:#c4bf66;fill-rule:evenodd;stroke-width:0.315437;image-rendering:optimizeQuality;shape-rendering:geometricPrecision;text-rendering:geometricPrecision" />
    <path
       class="fil5"
       d="m 84.030987,52.494218 c 0.48281,-0.04296 1.15876,-0.06438 2.01703,-0.06438 3.20799,0 5.79376,0.568607 7.76795,1.69519 1.97407,1.137308 3.3689,2.510595 4.19503,4.130742 0.82622,1.63081 1.24465,3.186576 1.24465,4.677966 0,1.3947 -0.52577,2.68218 -1.58794,3.84094 -1.0622,1.16952 -2.27455,1.74888 -3.63721,1.74888 -1.45918,0 -2.67153,-0.62233 -3.61576,-1.8561 1.55577,-1.21247 2.32827,-2.72527 2.32827,-4.52777 0,-2.199387 -0.7725,-3.819535 -2.32827,-4.870949 0.12876,1.072832 0.19314,2.01703 0.19314,2.832498 0,2.414071 -0.38625,4.001891 -1.15876,4.763731 -0.78313,0.76174 -1.77029,1.14799 -2.96126,1.14799 -0.74029,0 -1.37328,-0.35407 -1.89905,-1.07295 -0.5364,-0.70812 -0.80468,-1.53422 -0.80468,-2.47845 0,-0.77251 0.0966,-1.39471 0.27903,-1.84531 0.19315,-0.45063 0.47205,-0.91202 0.84752,-1.394828 0.38625,-0.48284 0.66532,-0.987066 0.85843,-1.512836 0.18235,-0.52577 0.27891,-1.34108 0.27891,-2.446246 0,-0.504226 -0.19311,-1.008578 -0.56861,-1.512804 -0.37559,-0.504226 -0.8584,-0.922653 -1.44842,-1.255314 z"
       id="path915-0"
       style="clip-rule:evenodd;fill:#b76767;fill-rule:evenodd;stroke-width:0.315437;image-rendering:optimizeQuality;shape-rendering:geometricPrecision;text-rendering:geometricPrecision" />
    <path
       class="fil6"
       d="m 156.93745,117.25804 v -1.88842 c 0.59015,0.63311 1.33045,1.1803 2.23169,1.66311 0.90126,0.48281 1.68452,0.72954 2.36047,0.72954 0.83686,0 1.48063,-0.42921 1.92048,-1.28752 -0.98703,-0.15015 -1.77033,-0.49356 -2.34969,-1.04075 -0.57936,-0.54719 -0.86906,-1.38407 -0.86906,-2.51063 0,-1.36253 0.54719,-2.5428 1.62015,-3.54062 1.08359,-0.99782 2.3711,-1.57718 3.86249,-1.74875 h 1.97407 c 0.9442,0.10719 2.2103,0.39688 3.78748,0.85827 1.58782,0.45064 2.80029,0.9442 3.63718,1.46984 -1.42701,0.79405 -2.32827,1.66311 -2.72528,2.59656 -0.38625,0.93344 -0.5794,1.93126 -0.5794,3.00406 0.0215,0.33266 0.043,0.64377 0.0537,0.92281 0,0.27891 0.0106,0.64374 0.0106,1.08359 0,0.71891 -0.34329,1.31969 -1.04062,1.82392 -0.68671,0.50435 -1.47,0.75109 -2.34969,0.75109 -1.42704,0 -2.66093,-0.72955 -3.68014,-2.19951 -0.78326,1.11589 -1.90985,1.67374 -3.40111,1.67374 -1.75966,0 -3.25092,-0.79393 -4.4634,-2.36032 z"
       id="path917-9"
       style="clip-rule:evenodd;fill:#ee9a69;fill-rule:evenodd;stroke-width:0.315437;image-rendering:optimizeQuality;shape-rendering:geometricPrecision;text-rendering:geometricPrecision" />
    <path
       class="fil8"
       d="m 53.057631,99.508623 -2.10298,0.686577 v -5.407469 c -0.46127,0.12873 -0.96562,0.19311 -1.51281,0.19311 -2.10283,0 -3.15437,-1.126551 -3.15437,-3.390317 0,-1.630903 0.68671,-3.089989 2.04937,-4.388264 1.36253,-1.298276 3.15437,-2.296066 5.36454,-2.993434 2.21014,-0.697337 4.46327,-1.051415 6.77013,-1.051415 -0.97641,1.212351 -1.46997,2.306728 -1.46997,3.293762 0,0.418427 0.1181,1.05154 0.37559,1.909844 0.24673,0.858273 0.37546,1.738121 0.37546,2.639356 0,1.459212 -0.34329,2.800324 -1.0192,4.002013 -0.68671,1.201594 -1.73812,1.802502 -3.16516,1.802502 -1.38404,0 -2.36045,-0.514983 -2.95047,-1.54498 0,1.88827 0.15018,3.304519 0.43987,4.248715 z"
       id="path921-3"
       style="clip-rule:evenodd;fill:#84c225;fill-rule:evenodd;stroke-width:0.315437;image-rendering:optimizeQuality;shape-rendering:geometricPrecision;text-rendering:geometricPrecision" />
    <path
       class="fil8"
       d="m 154.9678,83.586655 -0.85065,2.042132 -4.09989,-3.525853 c -0.20317,0.433667 -0.48321,0.858038 -0.83999,1.272913 -1.37112,1.594345 -2.9109,1.657064 -4.62726,0.181013 -1.23654,-1.063403 -1.89504,-2.535433 -1.99088,-4.415107 -0.0959,-1.879576 0.3159,-3.888724 1.22826,-6.019161 0.91237,-2.130394 2.11303,-4.069566 3.61718,-5.818605 0.28254,1.530798 0.79047,2.618581 1.53883,3.26216 0.31725,0.272828 0.87427,0.596097 1.69292,0.960513 0.81161,0.372554 1.56264,0.848643 2.24595,1.436278 1.10636,0.951455 1.89934,2.086183 2.36973,3.382193 0.46328,1.304136 0.23333,2.493117 -0.69715,3.575085 -0.90244,1.049366 -1.92954,1.453884 -3.09519,1.22964 1.43167,1.231214 2.60338,2.040791 3.50814,2.436799 z"
       id="path921-6-6"
       style="clip-rule:evenodd;fill:#84c225;fill-rule:evenodd;stroke-width:0.315437;image-rendering:optimizeQuality;shape-rendering:geometricPrecision;text-rendering:geometricPrecision" />
    <path
       class="fil8"
       d="m 118.02556,67.663499 -1.84234,1.224619 -1.44794,-5.21001 c -0.40997,0.247537 -0.87866,0.444615 -1.40586,0.591138 -2.02605,0.563066 -3.34085,-0.240781 -3.947,-2.421879 -0.43671,-1.571352 -0.16576,-3.161032 0.7995,-4.776774 0.96516,-1.615694 2.42437,-3.056863 4.3671,-4.320574 1.94271,-1.263676 4.01876,-2.208137 6.24138,-2.825837 -0.61613,1.42953 -0.79863,2.616105 -0.53433,3.567096 0.11203,0.403143 0.39535,0.981517 0.87326,1.739532 0.46754,0.760865 0.82716,1.574116 1.06849,2.442442 0.39073,1.405927 0.41908,2.789987 0.0896,4.12878 -0.33989,1.341594 -1.192,2.202093 -2.56693,2.584206 -1.3335,0.3706 -2.41215,0.135876 -3.25642,-0.698522 0.50561,1.819317 1.02954,3.143638 1.56147,3.975783 z"
       id="path921-6-2"
       style="clip-rule:evenodd;fill:#84c225;fill-rule:evenodd;stroke-width:0.315437;image-rendering:optimizeQuality;shape-rendering:geometricPrecision;text-rendering:geometricPrecision" />
    <path
       class="fil8"
       d="m 54.446531,151.80308 0.355318,-2.1835 4.804159,2.48209 c 0.09737,-0.46889 0.271676,-0.94652 0.522847,-1.43266 0.965221,-1.86822 2.448753,-2.28534 4.459946,-1.24624 1.448945,0.7486 2.430035,2.02843 2.957982,3.83498 0.528005,1.80643 0.592004,3.85636 0.197076,6.14004 -0.394949,2.28365 -1.114588,4.44792 -2.173459,6.49741 -0.628916,-1.42396 -1.374635,-2.36479 -2.251553,-2.81785 -0.371748,-0.19205 -0.988427,-0.37775 -1.869155,-0.54295 -0.875766,-0.17476 -1.716544,-0.46425 -2.517234,-0.87793 -1.296408,-0.6698 -2.330288,-1.59041 -3.087684,-2.74246 -0.752317,-1.16163 -0.803576,-2.37157 -0.148547,-3.63939 0.635289,-1.22962 1.541,-1.86071 2.726907,-1.91213 -1.677599,-0.86674 -3.004772,-1.38338 -3.976603,-1.55941 z"
       id="path921-7-5"
       style="clip-rule:evenodd;fill:#84c225;fill-rule:evenodd;stroke-width:0.315437;image-rendering:optimizeQuality;shape-rendering:geometricPrecision;text-rendering:geometricPrecision" />
    <path
       class="fil1"
       d="m 156.21054,130.20875 c 1.21235,-0.99782 2.23159,-2.40341 3.05781,-4.19512 0.8261,-1.79175 1.44842,-2.96126 1.86685,-3.50845 0.41846,-0.54719 1.3519,-0.81547 2.80032,-0.81547 0.96562,0 1.79172,0.33266 2.47842,0.9872 0.69737,0.66516 1.04066,1.50201 1.04066,2.49983 0,0.50423 -0.0858,0.97641 -0.25749,1.41625 0.56873,-0.24673 1.12655,-0.37546 1.67374,-0.37546 0.8584,0 1.55577,0.25749 2.09217,0.77247 0.53656,0.51502 0.79405,1.22314 0.79405,2.12438 0,0.9441 -0.30045,1.78095 -0.90124,2.53204 -0.61157,0.7403 -1.39483,1.31969 -2.36047,1.72737 -0.96562,0.40776 -1.88827,0.61154 -2.76812,0.61154 -1.42701,0 -2.52138,-0.17157 -3.29389,-0.50423 -0.78313,-0.33263 -1.78096,-0.90124 -3.00406,-1.69516 -1.22314,-0.79405 -2.2961,-1.3197 -3.21875,-1.57719 z"
       id="path907-2-0"
       style="clip-rule:evenodd;fill:#99ae6a;fill-rule:evenodd;stroke-width:0.315437;image-rendering:optimizeQuality;shape-rendering:geometricPrecision;text-rendering:geometricPrecision" />
    <circle
       style="fill:#000000;fill-opacity:0.24481574;fill-rule:evenodd;stroke-width:0.421879;stroke-miterlimit:4;stroke-dasharray:none"
       id="path850"
       cx="107.65647"
       cy="118.52146"
       r="47.096352" />
  </g>
</svg>
