<?xml version="1.0" encoding="UTF-8" standalone="no"?>
<!-- Created with Inkscape (http://www.inkscape.org/) -->

<svg
   width="118.10956mm"
   height="118.10956mm"
   viewBox="0 0 118.10956 118.10956"
   version="1.1"
   id="svg5"
   inkscape:version="1.1.1 (1:1.1+202109281949+c3084ef5ed)"
   sodipodi:docname="symbolic_leaves.svg"
   xmlns:inkscape="http://www.inkscape.org/namespaces/inkscape"
   xmlns:sodipodi="http://sodipodi.sourceforge.net/DTD/sodipodi-0.dtd"
   xmlns="http://www.w3.org/2000/svg"
   xmlns:svg="http://www.w3.org/2000/svg">
  <sodipodi:namedview
     id="namedview7"
     pagecolor="#ffffff"
     bordercolor="#666666"
     borderopacity="1.0"
     inkscape:pageshadow="2"
     inkscape:pageopacity="0.0"
     inkscape:pagecheckerboard="0"
     inkscape:document-units="mm"
     showgrid="false"
     inkscape:zoom="0.77771465"
     inkscape:cx="220.5179"
     inkscape:cy="343.95649"
     inkscape:window-width="1920"
     inkscape:window-height="1140"
     inkscape:window-x="0"
     inkscape:window-y="0"
     inkscape:window-maximized="1"
     inkscape:current-layer="layer1" />
  <defs
     id="defs2" />
  <g
     inkscape:label="Layer 1"
     inkscape:groupmode="layer"
     id="layer1"
     transform="translate(-46.612671,-57.414841)">
    <path
       class="fil7"
       d="m 129.56626,169.67032 c -0.0858,-0.43984 -0.12873,-1.10516 -0.12873,-2.0064 0,-1.58781 0.28966,-3.11141 0.86906,-4.55983 0.56873,-1.45921 1.35187,-2.73594 2.33903,-3.85174 0.98703,-1.10513 2.11361,-1.97419 3.39031,-2.59655 1.28752,-0.63295 2.60718,-0.94407 3.96984,-0.94407 1.8025,0 3.39044,0.49347 4.76373,1.49126 1.37332,0.98719 2.04924,2.18876 2.04924,3.58358 0,0.83689 -0.18236,1.53423 -0.55782,2.10296 -0.37563,0.55785 -0.84765,0.83689 -1.41625,0.83689 -0.54719,0 -1.21248,-0.21469 -1.99565,-0.64375 -0.78326,-0.42921 -1.52356,-0.76187 -2.19951,-1.01936 -0.6867,-0.24674 -1.69515,-0.37547 -3.03639,-0.37547 -1.44843,0 -2.82171,0.42919 -4.11999,1.28749 3.34751,0.31112 5.97624,0.78326 7.85375,1.39483 1.8884,0.6222 2.8325,1.79171 2.8325,3.50842 0,0.63298 -0.27894,1.148 -0.84752,1.55567 -0.56873,0.40776 -1.20172,0.61154 -1.9206,0.61154 -1.16942,0 -2.04923,-0.0644 -2.63938,-0.20378 -0.57937,-0.12873 -1.14797,-0.35404 -1.69516,-0.6545 -0.54719,-0.31111 -1.04079,-0.52577 -1.49139,-0.66516 -0.45063,-0.13952 -1.23377,-0.2039 -2.33893,-0.2039 -1.49139,0 -2.7145,0.45061 -3.68014,1.35187 z"
       id="path919-7"
       style="clip-rule:evenodd;fill:#f8c300;fill-rule:evenodd;stroke-width:0.315437;image-rendering:optimizeQuality;shape-rendering:geometricPrecision;text-rendering:geometricPrecision" />
    <circle
       style="fill:#fff400;fill-opacity:0.99435699;fill-rule:evenodd;stroke-width:0.529167"
       id="path850"
       cx="105.66745"
       cy="116.46962"
       r="59.054779" />
    <path
       class="fil1"
       d="m -61.212197,97.146416 c 1.21235,-0.997821 2.23159,-2.403409 3.05781,-4.195122 0.8261,-1.791746 1.44842,-2.96126 1.86685,-3.508448 0.41846,-0.547189 1.3519,-0.815468 2.80032,-0.815468 0.96562,0 1.79172,0.33266 2.47842,0.987192 0.69737,0.665162 1.04066,1.502016 1.04066,2.499838 0,0.504226 -0.0858,0.976403 -0.25749,1.416249 0.56873,-0.246735 1.12655,-0.375465 1.67374,-0.375465 0.8584,0 1.55577,0.257491 2.09217,0.772474 0.53656,0.515014 0.79405,1.223138 0.79405,2.124373 0,0.944103 -0.30045,1.780958 -0.90124,2.532045 -0.61157,0.740299 -1.39483,1.319693 -2.36047,1.727366 -0.96562,0.40776 -1.88827,0.61154 -2.76812,0.61154 -1.42701,0 -2.52138,-0.17157 -3.29389,-0.50423 -0.78313,-0.33263 -1.78096,-0.901235 -3.00406,-1.695159 -1.22314,-0.794049 -2.2961,-1.319693 -3.21875,-1.577185 z"
       id="path907"
       style="clip-rule:evenodd;fill:#99ae6a;fill-rule:evenodd;stroke-width:0.315437;image-rendering:optimizeQuality;shape-rendering:geometricPrecision;text-rendering:geometricPrecision" />
    <path
       class="fil1"
       d="m 40.200233,105.3737 c 1.21235,-0.99782 2.23159,-2.40341 3.05781,-4.19512 0.8261,-1.791746 1.44842,-2.96126 1.86685,-3.508448 0.41846,-0.547189 1.3519,-0.815468 2.80032,-0.815468 0.96562,0 1.79172,0.33266 2.47842,0.987192 0.69737,0.665162 1.04066,1.502016 1.04066,2.499834 0,0.50423 -0.0858,0.97641 -0.25749,1.41625 0.56873,-0.24673 1.12655,-0.37546 1.67374,-0.37546 0.8584,0 1.55577,0.25749 2.09217,0.77247 0.53656,0.51502 0.79405,1.22314 0.79405,2.12437 0,0.94411 -0.30045,1.78096 -0.90124,2.53205 -0.61157,0.7403 -1.39483,1.31969 -2.36047,1.72737 -0.96562,0.40776 -1.88827,0.61154 -2.76812,0.61154 -1.42701,0 -2.52138,-0.17157 -3.29389,-0.50423 -0.78313,-0.33263 -1.78096,-0.90124 -3.00406,-1.69516 -1.22314,-0.79405 -2.2961,-1.3197 -3.21875,-1.57719 z"
       id="path907-7"
       style="clip-rule:evenodd;fill:#99ae6a;fill-rule:evenodd;stroke-width:0.315437;image-rendering:optimizeQuality;shape-rendering:geometricPrecision;text-rendering:geometricPrecision" />
    <path
       class="fil2"
       d="m -41.856897,98.691427 1.04076,1.544983 c -1.57719,1.04065 -2.66078,2.47845 -3.27235,4.30237 0.66517,-0.33266 1.39471,-0.50426 2.16721,-0.50426 1.22311,0 2.22093,0.42909 3.00419,1.28751 0.7833,0.85828 1.18018,1.88827 1.18018,3.07921 0,1.5986 -0.22532,2.78956 -0.67595,3.58358 -0.4506,0.79392 -1.13718,1.82392 -2.05999,3.06848 -0.92266,1.24465 -1.38405,2.28528 -1.38405,3.12216 0,0.75109 0.2039,1.49139 0.60091,2.19951 -1.82404,-0.50422 -3.62655,-1.41625 -5.39684,-2.73591 -1.77033,-1.31969 -3.22938,-2.82174 -4.36672,-4.50627 -1.14797,-1.6845 -1.7167,-3.30452 -1.7167,-4.86028 0,-1.37329 0.43997,-2.56422 1.31969,-3.55141 0.87982,-0.97625 1.85622,-1.46984 2.92905,-1.46984 1.06217,0 1.9206,0.42921 2.57498,1.28752 0.2897,-2.68235 1.64156,-4.635003 4.05563,-5.847353 z"
       id="path909"
       style="clip-rule:evenodd;fill:#c4bf66;fill-rule:evenodd;stroke-width:0.315437;image-rendering:optimizeQuality;shape-rendering:geometricPrecision;text-rendering:geometricPrecision" />
    <path
       class="fil2"
       d="m 53.623686,108.22814 1.04076,1.54499 c -1.57719,1.04065 -2.66078,2.47845 -3.27235,4.30237 0.66517,-0.33266 1.39471,-0.50426 2.16721,-0.50426 1.22311,0 2.22093,0.42909 3.00419,1.28751 0.7833,0.85828 1.18018,1.88827 1.18018,3.07921 0,1.5986 -0.22532,2.78956 -0.67595,3.58358 -0.4506,0.79392 -1.13718,1.82392 -2.05999,3.06848 -0.92266,1.24465 -1.38405,2.28528 -1.38405,3.12216 0,0.75109 0.2039,1.49139 0.60091,2.19951 -1.82404,-0.50422 -3.62655,-1.41625 -5.39684,-2.73591 -1.77033,-1.31969 -3.22938,-2.82174 -4.36672,-4.50627 -1.14797,-1.6845 -1.7167,-3.30452 -1.7167,-4.86028 0,-1.37329 0.43997,-2.56422 1.31969,-3.55141 0.87982,-0.97625 1.85622,-1.46984 2.92905,-1.46984 1.06217,0 1.9206,0.42921 2.57498,1.28752 0.2897,-2.68235 1.64156,-4.63501 4.05563,-5.84736 z"
       id="path909-6"
       style="clip-rule:evenodd;fill:#c4bf66;fill-rule:evenodd;stroke-width:0.315437;image-rendering:optimizeQuality;shape-rendering:geometricPrecision;text-rendering:geometricPrecision" />
    <path
       class="fil2"
       d="m 125.45462,162.32846 1.81411,-0.42332 c 0.41176,1.84416 1.37024,3.36822 2.85745,4.58842 -0.0744,-0.73999 0.0247,-1.48286 0.29939,-2.20487 0.43495,-1.14316 1.19083,-1.92316 2.27167,-2.34996 1.08073,-0.42689 2.18453,-0.43155 3.29762,-0.008 1.49411,0.56848 2.52709,1.20259 3.10896,1.90613 0.58179,0.70347 1.30031,1.71145 2.13535,3.01652 0.83519,1.30496 1.64372,2.10625 2.4259,2.40386 0.70199,0.26709 1.46641,0.33978 2.26942,0.22054 -1.11991,1.5255 -2.61331,2.88586 -4.47625,4.07115 -1.86297,1.18531 -3.7857,2.01484 -5.76456,2.4788 -1.98263,0.47391 -3.699,0.42936 -5.15307,-0.12388 -1.28352,-0.48836 -2.24014,-1.32308 -2.84997,-2.49635 -0.59956,-1.16948 -0.71367,-2.25758 -0.33216,-3.26028 0.37772,-0.99274 1.08414,-1.64243 2.11905,-1.94881 -2.40399,-1.22464 -3.74828,-3.18252 -4.02291,-5.86991 z"
       id="path909-2"
       style="clip-rule:evenodd;fill:#c4bf66;fill-rule:evenodd;stroke-width:0.315437;image-rendering:optimizeQuality;shape-rendering:geometricPrecision;text-rendering:geometricPrecision" />
    <path
       class="fil2"
       d="m 116.73597,171.9318 -0.4249,1.81373 c -1.83555,-0.44859 -3.62659,-0.26521 -5.37969,0.52682 0.69625,0.26143 1.3182,0.67959 1.84355,1.24595 0.83181,0.89671 1.19581,1.92007 1.09914,3.0781 -0.0965,1.15797 -0.58176,2.1494 -1.45489,2.95933 -1.17201,1.08717 -2.19839,1.73192 -3.08698,1.94153 -0.8885,0.20957 -2.11056,0.40668 -3.65058,0.57652 -1.53999,0.17001 -2.6167,0.53945 -3.23025,1.10859 -0.55066,0.5108 -0.95474,1.16374 -1.2039,1.93638 -0.87081,-1.68019 -1.428,-3.62193 -1.664427,-5.81728 -0.236431,-2.19539 -0.127473,-4.28659 0.334056,-6.26603 0.454281,-1.9872 1.255211,-3.5059 2.395801,-4.56393 1.00682,-0.93394 2.17916,-1.4213 3.50118,-1.4477 1.31408,-0.0189 2.33997,0.36128 3.06958,1.14782 0.72235,0.77872 0.99147,1.69997 0.80723,2.76344 2.16357,-1.6118 4.51451,-1.94864 7.04508,-1.00327 z"
       id="path909-61"
       style="clip-rule:evenodd;fill:#c4bf66;fill-rule:evenodd;stroke-width:0.315437;image-rendering:optimizeQuality;shape-rendering:geometricPrecision;text-rendering:geometricPrecision" />
    <path
       class="fil5"
       d="m -13.349367,92.371962 c 0.48281,-0.04296 1.15876,-0.06438 2.01703,-0.06438 3.2079901,0 5.7937601,0.568607 7.7679501,1.69519 1.97407,1.137308 3.36889999,2.510595 4.19502999,4.130742 0.82622001,1.63081 1.24465001,3.186576 1.24465001,4.677966 0,1.3947 -0.52577,2.68218 -1.58794001,3.84094 -1.0622,1.16952 -2.27454999,1.74888 -3.63720999,1.74888 -1.45918,0 -2.67153,-0.62233 -3.61576,-1.8561 1.55577,-1.21247 2.32827,-2.72527 2.32827,-4.52777 0,-2.199387 -0.7725,-3.819535 -2.32827,-4.870949 0.12876,1.072832 0.19314,2.01703 0.19314,2.832498 0,2.414071 -0.38625,4.001891 -1.15876,4.763731 -0.78313,0.76174 -1.77029,1.14799 -2.9612601,1.14799 -0.74029,0 -1.37328,-0.35407 -1.89905,-1.07295 -0.5364,-0.70812 -0.80468,-1.53422 -0.80468,-2.47845 0,-0.77251 0.0966,-1.39471 0.27903,-1.84531 0.19315,-0.45063 0.47205,-0.91202 0.84752,-1.394828 0.38625,-0.48284 0.66532,-0.987066 0.85843,-1.512836 0.18235,-0.52577 0.27891,-1.34108 0.27891,-2.446246 0,-0.504226 -0.19311,-1.008578 -0.56861,-1.512804 -0.37559,-0.504226 -0.8584,-0.922653 -1.44842,-1.255314 z"
       id="path915"
       style="clip-rule:evenodd;fill:#b76767;fill-rule:evenodd;stroke-width:0.315437;image-rendering:optimizeQuality;shape-rendering:geometricPrecision;text-rendering:geometricPrecision" />
    <path
       class="fil5"
       d="m 146.96913,141.96844 c 0.48281,-0.043 1.15876,-0.0644 2.01703,-0.0644 3.20799,0 5.79376,0.56861 7.76795,1.69519 1.97407,1.13731 3.3689,2.5106 4.19503,4.13075 0.82622,1.63081 1.24465,3.18657 1.24465,4.67796 0,1.3947 -0.52577,2.68218 -1.58794,3.84094 -1.0622,1.16952 -2.27455,1.74888 -3.63721,1.74888 -1.45918,0 -2.67153,-0.62233 -3.61576,-1.8561 1.55577,-1.21247 2.32827,-2.72527 2.32827,-4.52777 0,-2.19939 -0.7725,-3.81953 -2.32827,-4.87095 0.12876,1.07283 0.19314,2.01703 0.19314,2.8325 0,2.41407 -0.38625,4.00189 -1.15876,4.76373 -0.78313,0.76174 -1.77029,1.14799 -2.96126,1.14799 -0.74029,0 -1.37328,-0.35407 -1.89905,-1.07295 -0.5364,-0.70812 -0.80468,-1.53422 -0.80468,-2.47845 0,-0.77251 0.0966,-1.39471 0.27903,-1.84531 0.19315,-0.45063 0.47205,-0.91202 0.84752,-1.39483 0.38625,-0.48284 0.66532,-0.98706 0.85843,-1.51283 0.18235,-0.52577 0.27891,-1.34108 0.27891,-2.44625 0,-0.50422 -0.19311,-1.00858 -0.56861,-1.5128 -0.37559,-0.50423 -0.8584,-0.92266 -1.44842,-1.25532 z"
       id="path915-3"
       style="clip-rule:evenodd;fill:#b76767;fill-rule:evenodd;stroke-width:0.315437;image-rendering:optimizeQuality;shape-rendering:geometricPrecision;text-rendering:geometricPrecision" />
    <path
       class="fil5"
       d="m 128.59799,55.556073 c 0.48281,-0.04296 1.15876,-0.06438 2.01703,-0.06438 3.20799,0 5.79376,0.568607 7.76795,1.69519 1.97407,1.137308 3.3689,2.510595 4.19503,4.130742 0.82622,1.63081 1.24465,3.186576 1.24465,4.677966 0,1.3947 -0.52577,2.68218 -1.58794,3.84094 -1.0622,1.16952 -2.27455,1.74888 -3.63721,1.74888 -1.45918,0 -2.67153,-0.62233 -3.61576,-1.8561 1.55577,-1.21247 2.32827,-2.72527 2.32827,-4.52777 0,-2.199387 -0.7725,-3.819535 -2.32827,-4.870949 0.12876,1.072832 0.19314,2.01703 0.19314,2.832498 0,2.414071 -0.38625,4.001891 -1.15876,4.763731 -0.78313,0.76174 -1.77029,1.14799 -2.96126,1.14799 -0.74029,0 -1.37328,-0.35407 -1.89905,-1.07295 -0.5364,-0.70812 -0.80468,-1.53422 -0.80468,-2.47845 0,-0.77251 0.0966,-1.39471 0.27903,-1.84531 0.19315,-0.45063 0.47205,-0.91202 0.84752,-1.394828 0.38625,-0.48284 0.66532,-0.987066 0.85843,-1.512836 0.18235,-0.52577 0.27891,-1.34108 0.27891,-2.446246 0,-0.504226 -0.19311,-1.008578 -0.56861,-1.512804 -0.37559,-0.504226 -0.8584,-0.922653 -1.44842,-1.255314 z"
       id="path915-6"
       style="clip-rule:evenodd;fill:#b76767;fill-rule:evenodd;stroke-width:0.315437;image-rendering:optimizeQuality;shape-rendering:geometricPrecision;text-rendering:geometricPrecision" />
    <path
       class="fil5"
       d="m 84.030987,52.494218 c 0.48281,-0.04296 1.15876,-0.06438 2.01703,-0.06438 3.20799,0 5.79376,0.568607 7.76795,1.69519 1.97407,1.137308 3.3689,2.510595 4.19503,4.130742 0.82622,1.63081 1.24465,3.186576 1.24465,4.677966 0,1.3947 -0.52577,2.68218 -1.58794,3.84094 -1.0622,1.16952 -2.27455,1.74888 -3.63721,1.74888 -1.45918,0 -2.67153,-0.62233 -3.61576,-1.8561 1.55577,-1.21247 2.32827,-2.72527 2.32827,-4.52777 0,-2.199387 -0.7725,-3.819535 -2.32827,-4.870949 0.12876,1.072832 0.19314,2.01703 0.19314,2.832498 0,2.414071 -0.38625,4.001891 -1.15876,4.763731 -0.78313,0.76174 -1.77029,1.14799 -2.96126,1.14799 -0.74029,0 -1.37328,-0.35407 -1.89905,-1.07295 -0.5364,-0.70812 -0.80468,-1.53422 -0.80468,-2.47845 0,-0.77251 0.0966,-1.39471 0.27903,-1.84531 0.19315,-0.45063 0.47205,-0.91202 0.84752,-1.394828 0.38625,-0.48284 0.66532,-0.987066 0.85843,-1.512836 0.18235,-0.52577 0.27891,-1.34108 0.27891,-2.446246 0,-0.504226 -0.19311,-1.008578 -0.56861,-1.512804 -0.37559,-0.504226 -0.8584,-0.922653 -1.44842,-1.255314 z"
       id="path915-0"
       style="clip-rule:evenodd;fill:#b76767;fill-rule:evenodd;stroke-width:0.315437;image-rendering:optimizeQuality;shape-rendering:geometricPrecision;text-rendering:geometricPrecision" />
    <path
       class="fil6"
       d="m -16.299967,86.460168 v -1.888427 c 0.59015,0.633114 1.33045,1.180303 2.23169,1.66311 0.90126,0.482808 1.68452,0.729543 2.36047,0.729543 0.83686,0 1.48063,-0.429215 1.9204801,-1.287519 -0.9870301,-0.150148 -1.7703301,-0.493564 -2.3496901,-1.040753 -0.57936,-0.547188 -0.86906,-1.384074 -0.86906,-2.510626 0,-1.36253 0.54719,-2.542801 1.62015,-3.540623 1.08359,-0.997822 2.3711001,-1.577185 3.8624901,-1.748751 h 1.97407 c 0.9442,0.107186 2.2103,0.396883 3.78748,0.858273 1.58781999,0.450633 2.80029,0.944197 3.63718,1.469841 -1.42701001,0.79405 -2.32827001,1.66311 -2.72528001,2.596552 -0.38624999,0.933441 -0.57939999,1.931263 -0.57939999,3.004064 0.0215,0.33266 0.043,0.643775 0.0537,0.922811 0,0.278909 0.0106,0.643744 0.0106,1.083589 0,0.718912 -0.34329,1.319694 -1.04062,1.82392 -0.68671,0.504352 -1.47,0.751087 -2.34969,0.751087 -1.42704,0 -2.66093,-0.729543 -3.68014,-2.199511 -0.78326,1.11589 -1.9098501,1.67374 -3.4011101,1.67374 -1.75966,0 -3.25092,-0.793923 -4.4634,-2.36032 z"
       id="path917"
       style="clip-rule:evenodd;fill:#ee9a69;fill-rule:evenodd;stroke-width:0.315437;image-rendering:optimizeQuality;shape-rendering:geometricPrecision;text-rendering:geometricPrecision" />
    <path
       class="fil6"
       d="m 51.445537,149.29848 -1.634946,-0.94505 c 0.843464,-0.1941 1.687682,-0.56119 2.556703,-1.09984 0.869031,-0.53866 1.474618,-1.09331 1.812892,-1.67853 0.4188,-0.72453 0.369373,-1.49668 -0.153607,-2.30702 -0.623947,0.7794 -1.313257,1.2857 -2.076934,1.51345 -0.763677,0.22776 -1.633209,0.0598 -2.608542,-0.50402 -1.179638,-0.68186 -1.927643,-1.74626 -2.254572,-3.17455 -0.321608,-1.43749 -0.178877,-2.84211 0.418937,-4.21917 l 0.987908,-1.70909 c 0.565311,-0.76383 1.449734,-1.715 2.638479,-2.84958 1.184762,-1.14916 2.218843,-1.95189 3.092741,-2.41339 -0.02667,1.63284 0.274707,2.84804 0.884179,3.6589 0.614849,0.80153 1.382071,1.46811 2.310869,2.00498 0.298767,0.14786 0.578876,0.28494 0.825815,0.41532 0.241472,0.13958 0.562636,0.31298 0.943445,0.5331 0.62241,0.35977 0.970751,0.95764 1.058325,1.8137 0.09299,0.84693 -0.08538,1.64856 -0.525613,2.41017 -0.714151,1.23549 -1.963264,1.93866 -3.745975,2.08542 0.574136,1.23657 0.493313,2.49111 -0.252976,3.7822 -0.880608,1.52346 -2.314258,2.41723 -4.277168,2.68307 z"
       id="path917-1"
       style="clip-rule:evenodd;fill:#ee9a69;fill-rule:evenodd;stroke-width:0.315437;image-rendering:optimizeQuality;shape-rendering:geometricPrecision;text-rendering:geometricPrecision" />
    <path
       class="fil6"
       d="m 138.18646,167.10224 -0.93497,-1.64074 c 0.8262,0.25788 1.74031,0.36678 2.76238,0.34006 1.02208,-0.0267 1.82476,-0.20015 2.41205,-0.53482 0.7271,-0.41433 1.07393,-1.10597 1.03114,-2.06947 -0.93191,0.35822 -1.78249,0.44767 -2.55678,0.25908 -0.77427,-0.18857 -1.44034,-0.77222 -1.99808,-1.75105 -0.67459,-1.18381 -0.78352,-2.48018 -0.34531,-3.87835 0.44744,-1.40343 1.27923,-2.54424 2.49006,-3.43169 l 1.71514,-0.97737 c 0.87343,-0.37435 2.11689,-0.74949 3.71563,-1.12949 1.60267,-0.39458 2.90047,-0.56606 3.88783,-0.52371 -0.84673,1.39639 -1.19948,2.5977 -1.08227,3.60527 0.12657,1.00224 0.45277,1.96481 0.98391,2.89689 0.18339,0.27839 0.3561,0.53805 0.50355,0.77519 0.13808,0.24233 0.32792,0.55406 0.54569,0.93621 0.35593,0.62462 0.35511,1.31656 -0.001,2.0999 -0.34693,0.77819 -0.90535,1.38036 -1.66964,1.81591 -1.23986,0.70652 -2.67311,0.68357 -4.28641,-0.089 -0.12805,1.35733 -0.83068,2.39978 -2.12634,3.13811 -1.52885,0.87121 -3.21759,0.91973 -5.04655,0.1591 z"
       id="path917-1-2"
       style="clip-rule:evenodd;fill:#ee9a69;fill-rule:evenodd;stroke-width:0.315437;image-rendering:optimizeQuality;shape-rendering:geometricPrecision;text-rendering:geometricPrecision" />
    <path
       class="fil6"
       d="m 79.949999,168.1921 -1.492851,1.15653 c 0.139063,-0.85427 0.11825,-1.77461 -0.05203,-2.78275 -0.170281,-1.00815 -0.454928,-1.77844 -0.868903,-2.3128 -0.51252,-0.66156 -1.246083,-0.90761 -2.193973,-0.72967 0.48579,0.87223 0.694032,1.70176 0.616277,2.49488 -0.07774,0.79311 -0.561868,1.53468 -1.452477,2.22459 -1.077106,0.83446 -2.345257,1.12473 -3.791174,0.88762 -1.452423,-0.24551 -2.698929,-0.9085 -3.74793,-1.9824 l -1.208979,-1.56055 c -0.493535,-0.81206 -1.039915,-1.99036 -1.641092,-3.51973 -0.61618,-1.5312 -0.968569,-2.79196 -1.065573,-3.77546 1.501662,0.64179 2.740636,0.82202 3.721695,0.56419 0.974452,-0.26633 1.881549,-0.72473 2.72962,-1.38175 0.249806,-0.22072 0.48258,-0.42825 0.696616,-0.6076 0.220487,-0.17082 0.502403,-0.40263 0.850116,-0.67201 0.568313,-0.44028 1.253489,-0.53683 2.079157,-0.29439 0.819261,0.23399 1.494028,0.70209 2.032778,1.3975 0.873964,1.12811 1.05291,2.55033 0.515052,4.25629 1.361842,-0.0642 2.492795,0.48473 3.406089,1.66361 1.077668,1.39106 1.363338,3.05616 0.867626,4.97396 z"
       id="path917-1-7"
       style="clip-rule:evenodd;fill:#ee9a69;fill-rule:evenodd;stroke-width:0.315437;image-rendering:optimizeQuality;shape-rendering:geometricPrecision;text-rendering:geometricPrecision" />
    <path
       class="fil6"
       d="m 156.39092,101.80923 -1.63495,-0.94505 c 0.84346,-0.1941 1.68768,-0.56119 2.5567,-1.099838 0.86903,-0.53866 1.47462,-1.09331 1.8129,-1.67853 0.4188,-0.72453 0.36937,-1.49668 -0.15361,-2.30702 -0.62395,0.7794 -1.31326,1.2857 -2.07694,1.51345 -0.76367,0.22776 -1.6332,0.0598 -2.60854,-0.50402 -1.17964,-0.68186 -1.92764,-1.74626 -2.25457,-3.17455 -0.32161,-1.43749 -0.17888,-2.84211 0.41894,-4.21917 l 0.98791,-1.70909 c 0.56531,-0.76383 1.44973,-1.715 2.63847,-2.84958 1.18477,-1.14916 2.21885,-1.95189 3.09275,-2.41339 -0.0267,1.63284 0.2747,2.84804 0.88417,3.6589 0.61485,0.80153 1.38208,1.46811 2.31087,2.00498 0.29877,0.14786 0.57888,0.28494 0.82582,0.41532 0.24147,0.13958 0.56263,0.31298 0.94344,0.5331 0.62241,0.35977 0.97075,0.95764 1.05833,1.8137 0.093,0.84693 -0.0854,1.64856 -0.52561,2.41017 -0.71416,1.23549 -1.96327,1.93866 -3.74598,2.08542 0.57414,1.23657 0.49331,2.49111 -0.25298,3.7822 -0.8806,1.523458 -2.31425,2.417228 -4.27716,2.683068 z"
       id="path917-1-0"
       style="clip-rule:evenodd;fill:#ee9a69;fill-rule:evenodd;stroke-width:0.315437;image-rendering:optimizeQuality;shape-rendering:geometricPrecision;text-rendering:geometricPrecision" />
    <path
       class="fil6"
       d="m 56.256096,78.98373 -0.693872,-1.756334 c 0.781496,0.371983 1.671066,0.608888 2.686666,0.726779 1.015614,0.117889 1.834741,0.05956 2.46341,-0.188804 0.778323,-0.307492 1.219355,-0.943219 1.313064,-1.903103 -0.973158,0.22302 -1.827845,0.191441 -2.567731,-0.104601 -0.739893,-0.296035 -1.316855,-0.967907 -1.730757,-2.015691 -0.500643,-1.267216 -0.425397,-2.565983 0.205879,-3.888249 0.64116,-1.326168 1.62573,-2.338073 2.949756,-3.045626 l 1.835984,-0.725338 c 0.917539,-0.247253 2.201519,-0.443021 3.837907,-0.593416 1.642327,-0.164294 2.951341,-0.150766 3.922826,0.03061 -1.03543,1.262838 -1.554328,2.402261 -1.580589,3.416293 -0.01625,1.010062 0.170738,2.009059 0.564923,3.006813 0.142228,0.301488 0.276535,0.582938 0.389015,0.838527 0.10248,0.259402 0.246389,0.594818 0.408004,1.003901 0.264152,0.66862 0.165619,1.353515 -0.297659,2.078692 -0.453361,0.721388 -1.0912,1.238678 -1.909355,1.561906 -1.32722,0.524342 -2.742862,0.299198 -4.230889,-0.693461 -0.318455,1.325641 -1.161268,2.258416 -2.548215,2.806356 -1.636571,0.646556 -3.315232,0.456097 -5.018442,-0.55522 z"
       id="path917-1-9"
       style="clip-rule:evenodd;fill:#ee9a69;fill-rule:evenodd;stroke-width:0.315437;image-rendering:optimizeQuality;shape-rendering:geometricPrecision;text-rendering:geometricPrecision" />
    <path
       class="fil6"
       d="m 156.93745,117.25804 v -1.88842 c 0.59015,0.63311 1.33045,1.1803 2.23169,1.66311 0.90126,0.48281 1.68452,0.72954 2.36047,0.72954 0.83686,0 1.48063,-0.42921 1.92048,-1.28752 -0.98703,-0.15015 -1.77033,-0.49356 -2.34969,-1.04075 -0.57936,-0.54719 -0.86906,-1.38407 -0.86906,-2.51063 0,-1.36253 0.54719,-2.5428 1.62015,-3.54062 1.08359,-0.99782 2.3711,-1.57718 3.86249,-1.74875 h 1.97407 c 0.9442,0.10719 2.2103,0.39688 3.78748,0.85827 1.58782,0.45064 2.80029,0.9442 3.63718,1.46984 -1.42701,0.79405 -2.32827,1.66311 -2.72528,2.59656 -0.38625,0.93344 -0.5794,1.93126 -0.5794,3.00406 0.0215,0.33266 0.043,0.64377 0.0537,0.92281 0,0.27891 0.0106,0.64374 0.0106,1.08359 0,0.71891 -0.34329,1.31969 -1.04062,1.82392 -0.68671,0.50435 -1.47,0.75109 -2.34969,0.75109 -1.42704,0 -2.66093,-0.72955 -3.68014,-2.19951 -0.78326,1.11589 -1.90985,1.67374 -3.40111,1.67374 -1.75966,0 -3.25092,-0.79393 -4.4634,-2.36032 z"
       id="path917-9"
       style="clip-rule:evenodd;fill:#ee9a69;fill-rule:evenodd;stroke-width:0.315437;image-rendering:optimizeQuality;shape-rendering:geometricPrecision;text-rendering:geometricPrecision" />
    <path
       class="fil7"
       d="m -26.986337,77.436903 c -0.0858,-0.439845 -0.12873,-1.105165 -0.12873,-2.0064 0,-1.587815 0.28966,-3.111407 0.86906,-4.559831 0.56873,-1.459212 1.35187,-2.735943 2.33903,-3.851738 0.98703,-1.105134 2.11361,-1.974194 3.39031,-2.596551 1.28752,-0.632956 2.60718,-0.944072 3.96984,-0.944072 1.8025,0 3.39044,0.49347 4.76373,1.49126 1.37332,0.987192 2.0492401,2.188755 2.0492401,3.583585 0,0.836886 -0.18236,1.534223 -0.5578201,2.102956 -0.37563,0.55785 -0.84765,0.836886 -1.41625,0.836886 -0.54719,0 -1.21248,-0.214687 -1.99565,-0.643744 -0.78326,-0.429215 -1.52356,-0.761875 -2.19951,-1.019366 -0.6867,-0.246735 -1.69515,-0.375465 -3.03639,-0.375465 -1.44843,0 -2.82171,0.429184 -4.11999,1.287488 3.34751,0.311115 5.97624,0.783261 7.85375,1.39483 1.8884,0.6222 2.8325,1.791714 2.8325,3.508417 0,0.632988 -0.27894,1.148002 -0.84752,1.555672 -0.56873,0.407766 -1.20172,0.611538 -1.9206,0.611538 -1.16942,0 -2.04923,-0.06438 -2.63938,-0.203772 -0.57937,-0.12873 -1.14797,-0.354047 -1.69516,-0.6545 -0.54719,-0.311116 -1.04079,-0.525771 -1.49139,-0.665162 -0.45063,-0.139518 -1.23377,-0.203899 -2.33893,-0.203899 -1.49139,0 -2.7145,0.450602 -3.68014,1.351868 z"
       id="path919"
       style="clip-rule:evenodd;fill:#f8c300;fill-rule:evenodd;stroke-width:0.315437;image-rendering:optimizeQuality;shape-rendering:geometricPrecision;text-rendering:geometricPrecision" />
    <path
       class="fil8"
       d="m -35.279877,78.477656 -2.10298,0.68658 v -5.407473 c -0.46127,0.12873 -0.96562,0.19311 -1.51281,0.19311 -2.10283,0 -3.15437,-1.126551 -3.15437,-3.390317 0,-1.630903 0.68671,-3.089989 2.04937,-4.388264 1.36253,-1.298276 3.15437,-2.296066 5.36454,-2.993434 2.21014,-0.697337 4.46327,-1.051415 6.77013,-1.051415 -0.97641,1.212351 -1.46997,2.306728 -1.46997,3.293762 0,0.418427 0.1181,1.05154 0.37559,1.909844 0.24673,0.858273 0.37546,1.738121 0.37546,2.639356 0,1.459212 -0.34329,2.800324 -1.0192,4.002013 -0.68671,1.201594 -1.73812,1.802502 -3.16516,1.802502 -1.38404,0 -2.36045,-0.514983 -2.95047,-1.54498 0,1.88827 0.15018,3.304519 0.43987,4.248716 z"
       id="path921"
       style="clip-rule:evenodd;fill:#84c225;fill-rule:evenodd;stroke-width:0.315437;image-rendering:optimizeQuality;shape-rendering:geometricPrecision;text-rendering:geometricPrecision" />
    <path
       class="fil8"
       d="m 53.057631,99.508623 -2.10298,0.686577 v -5.407469 c -0.46127,0.12873 -0.96562,0.19311 -1.51281,0.19311 -2.10283,0 -3.15437,-1.126551 -3.15437,-3.390317 0,-1.630903 0.68671,-3.089989 2.04937,-4.388264 1.36253,-1.298276 3.15437,-2.296066 5.36454,-2.993434 2.21014,-0.697337 4.46327,-1.051415 6.77013,-1.051415 -0.97641,1.212351 -1.46997,2.306728 -1.46997,3.293762 0,0.418427 0.1181,1.05154 0.37559,1.909844 0.24673,0.858273 0.37546,1.738121 0.37546,2.639356 0,1.459212 -0.34329,2.800324 -1.0192,4.002013 -0.68671,1.201594 -1.73812,1.802502 -3.16516,1.802502 -1.38404,0 -2.36045,-0.514983 -2.95047,-1.54498 0,1.88827 0.15018,3.304519 0.43987,4.248715 z"
       id="path921-3"
       style="clip-rule:evenodd;fill:#84c225;fill-rule:evenodd;stroke-width:0.315437;image-rendering:optimizeQuality;shape-rendering:geometricPrecision;text-rendering:geometricPrecision" />
    <path
       class="fil8"
       d="m 84.320576,67.868896 -0.850654,2.042132 -4.099894,-3.525853 c -0.203162,0.433667 -0.483202,0.858038 -0.839988,1.272913 -1.371116,1.594345 -2.910895,1.657064 -4.62726,0.181013 -1.236535,-1.063403 -1.895042,-2.535433 -1.990882,-4.415107 -0.09593,-1.879576 0.315899,-3.888724 1.228266,-6.019161 0.91237,-2.130394 2.113027,-4.069566 3.617177,-5.818605 0.282541,1.530798 0.790469,2.618581 1.538829,3.26216 0.317247,0.272828 0.874273,0.596097 1.692923,0.960513 0.81161,0.372554 1.562639,0.848643 2.245946,1.436278 1.106361,0.951455 1.899342,2.086183 2.369736,3.382193 0.463279,1.304136 0.233327,2.493117 -0.69715,3.575085 -0.902441,1.049366 -1.929548,1.453884 -3.095194,1.22964 1.431668,1.231214 2.603377,2.040791 3.508145,2.436799 z"
       id="path921-6"
       style="clip-rule:evenodd;fill:#84c225;fill-rule:evenodd;stroke-width:0.315437;image-rendering:optimizeQuality;shape-rendering:geometricPrecision;text-rendering:geometricPrecision" />
    <path
       class="fil8"
       d="m 102.0798,168.43388 1.3837,1.72606 -5.060511,1.90581 c 0.28305,0.38631 0.52105,0.8356 0.71391,1.34768 0.74112,1.9679 0.0575,3.34901 -2.06105,4.14685 -1.52625,0.5748 -3.13374,0.4464 -4.828971,-0.37126 -1.695179,-0.81753 -3.260462,-2.14274 -4.692039,-3.96531 -1.431533,-1.82256 -2.556984,-3.80632 -3.370017,-5.96516 1.478688,0.48648 2.676792,0.56266 3.600493,0.21479 0.39158,-0.14747 0.942447,-0.48112 1.654921,-1.0246 0.71624,-0.53339 1.494264,-0.96395 2.337676,-1.28158 1.365576,-0.51429 2.741627,-0.66569 4.104427,-0.45667 1.36652,0.21916 2.29943,0.99132 2.80237,2.32679 0.48779,1.29523 0.34998,2.39049 -0.40597,3.30566 1.767101,-0.6655 3.039551,-1.30518 3.821061,-1.90906 z"
       id="path921-6-3"
       style="clip-rule:evenodd;fill:#84c225;fill-rule:evenodd;stroke-width:0.315437;image-rendering:optimizeQuality;shape-rendering:geometricPrecision;text-rendering:geometricPrecision" />
    <path
       class="fil8"
       d="m 115.58901,173.33365 0.1562,-2.20669 5.00913,2.03703 c 0.0545,-0.47578 0.18487,-0.96722 0.39099,-1.47411 0.79216,-1.94791 2.23184,-2.49761 4.32884,-1.64483 1.51076,0.61437 2.60367,1.80014 3.29298,3.55149 0.68934,1.75123 0.93865,3.78694 0.75205,6.097 -0.18661,2.31001 -0.70739,4.53054 -1.5764,6.66746 -0.75522,-1.36119 -1.58305,-2.23064 -2.49737,-2.60247 -0.3876,-0.15763 -1.01856,-0.28671 -1.91064,-0.37153 -0.88799,-0.0948 -1.75151,-0.30696 -2.58635,-0.64647 -1.35172,-0.54968 -2.46472,-1.37289 -3.32326,-2.4517 -0.85439,-1.08877 -1.01495,-2.28909 -0.47737,-3.61101 0.52138,-1.28207 1.36624,-1.99256 2.54262,-2.15111 -1.74916,-0.71132 -3.11765,-1.10572 -4.10142,-1.19306 z"
       id="path921-6-5"
       style="clip-rule:evenodd;fill:#84c225;fill-rule:evenodd;stroke-width:0.315437;image-rendering:optimizeQuality;shape-rendering:geometricPrecision;text-rendering:geometricPrecision" />
    <path
       class="fil8"
       d="m 154.9678,83.586655 -0.85065,2.042132 -4.09989,-3.525853 c -0.20317,0.433667 -0.48321,0.858038 -0.83999,1.272913 -1.37112,1.594345 -2.9109,1.657064 -4.62726,0.181013 -1.23654,-1.063403 -1.89504,-2.535433 -1.99088,-4.415107 -0.0959,-1.879576 0.3159,-3.888724 1.22826,-6.019161 0.91237,-2.130394 2.11303,-4.069566 3.61718,-5.818605 0.28254,1.530798 0.79047,2.618581 1.53883,3.26216 0.31725,0.272828 0.87427,0.596097 1.69292,0.960513 0.81161,0.372554 1.56264,0.848643 2.24595,1.436278 1.10636,0.951455 1.89934,2.086183 2.36973,3.382193 0.46328,1.304136 0.23333,2.493117 -0.69715,3.575085 -0.90244,1.049366 -1.92954,1.453884 -3.09519,1.22964 1.43167,1.231214 2.60338,2.040791 3.50814,2.436799 z"
       id="path921-6-6"
       style="clip-rule:evenodd;fill:#84c225;fill-rule:evenodd;stroke-width:0.315437;image-rendering:optimizeQuality;shape-rendering:geometricPrecision;text-rendering:geometricPrecision" />
    <path
       class="fil8"
       d="m 118.02556,67.663499 -1.84234,1.224619 -1.44794,-5.21001 c -0.40997,0.247537 -0.87866,0.444615 -1.40586,0.591138 -2.02605,0.563066 -3.34085,-0.240781 -3.947,-2.421879 -0.43671,-1.571352 -0.16576,-3.161032 0.7995,-4.776774 0.96516,-1.615694 2.42437,-3.056863 4.3671,-4.320574 1.94271,-1.263676 4.01876,-2.208137 6.24138,-2.825837 -0.61613,1.42953 -0.79863,2.616105 -0.53433,3.567096 0.11203,0.403143 0.39535,0.981517 0.87326,1.739532 0.46754,0.760865 0.82716,1.574116 1.06849,2.442442 0.39073,1.405927 0.41908,2.789987 0.0896,4.12878 -0.33989,1.341594 -1.192,2.202093 -2.56693,2.584206 -1.3335,0.3706 -2.41215,0.135876 -3.25642,-0.698522 0.50561,1.819317 1.02954,3.143638 1.56147,3.975783 z"
       id="path921-6-2"
       style="clip-rule:evenodd;fill:#84c225;fill-rule:evenodd;stroke-width:0.315437;image-rendering:optimizeQuality;shape-rendering:geometricPrecision;text-rendering:geometricPrecision" />
    <path
       class="fil8"
       d="m 150.73397,140.11656 -0.95745,-1.9943 5.36041,-0.71186 c -0.18832,-0.44031 -0.31854,-0.9318 -0.39057,-1.47423 -0.27683,-2.08453 0.70149,-3.27522 2.94555,-3.57323 1.61671,-0.2147 3.1535,0.27395 4.61986,1.45384 1.46634,1.17976 2.69134,2.82465 3.6736,4.92378 0.98222,2.09911 1.62983,4.28602 1.93352,6.5728 -1.33035,-0.80831 -2.48017,-1.15351 -3.45862,-1.02357 -0.41478,0.0551 -1.02684,0.2555 -1.84377,0.62374 -0.81832,0.35757 -1.67357,0.60101 -2.56697,0.71965 -1.44651,0.1921 -2.82114,0.0283 -4.10135,-0.48348 -1.28153,-0.52255 -2.01563,-1.48571 -2.20349,-2.90033 -0.1822,-1.37199 0.19976,-2.4077 1.14312,-3.12818 -1.87184,0.24858 -3.25599,0.5839 -4.15384,0.99537 z"
       id="path921-7"
       style="clip-rule:evenodd;fill:#84c225;fill-rule:evenodd;stroke-width:0.315437;image-rendering:optimizeQuality;shape-rendering:geometricPrecision;text-rendering:geometricPrecision" />
    <path
       class="fil8"
       d="m 54.446531,151.80308 0.355318,-2.1835 4.804159,2.48209 c 0.09737,-0.46889 0.271676,-0.94652 0.522847,-1.43266 0.965221,-1.86822 2.448753,-2.28534 4.459946,-1.24624 1.448945,0.7486 2.430035,2.02843 2.957982,3.83498 0.528005,1.80643 0.592004,3.85636 0.197076,6.14004 -0.394949,2.28365 -1.114588,4.44792 -2.173459,6.49741 -0.628916,-1.42396 -1.374635,-2.36479 -2.251553,-2.81785 -0.371748,-0.19205 -0.988427,-0.37775 -1.869155,-0.54295 -0.875766,-0.17476 -1.716544,-0.46425 -2.517234,-0.87793 -1.296408,-0.6698 -2.330288,-1.59041 -3.087684,-2.74246 -0.752317,-1.16163 -0.803576,-2.37157 -0.148547,-3.63939 0.635289,-1.22962 1.541,-1.86071 2.726907,-1.91213 -1.677599,-0.86674 -3.004772,-1.38338 -3.976603,-1.55941 z"
       id="path921-7-5"
       style="clip-rule:evenodd;fill:#84c225;fill-rule:evenodd;stroke-width:0.315437;image-rendering:optimizeQuality;shape-rendering:geometricPrecision;text-rendering:geometricPrecision" />
    <path
       class="fil2"
       d="m 83.332553,157.48028 1.04076,1.54499 c -1.57719,1.04065 -2.66078,2.47845 -3.27235,4.30237 0.66517,-0.33266 1.39471,-0.50426 2.16721,-0.50426 1.22311,0 2.22093,0.42909 3.00419,1.28751 0.7833,0.85828 1.18018,1.88827 1.18018,3.07921 0,1.5986 -0.22532,2.78956 -0.67595,3.58358 -0.4506,0.79392 -1.13718,1.82392 -2.05999,3.06848 -0.92266,1.24465 -1.38405,2.28528 -1.38405,3.12216 0,0.75109 0.2039,1.49139 0.60091,2.19951 -1.82404,-0.50422 -3.62655,-1.41625 -5.39684,-2.73591 -1.77033,-1.31969 -3.22938,-2.82174 -4.36672,-4.50627 -1.14797,-1.6845 -1.7167,-3.30452 -1.7167,-4.86028 0,-1.37329 0.43997,-2.56422 1.31969,-3.55141 0.87982,-0.97625 1.85622,-1.46984 2.92905,-1.46984 1.06217,0 1.9206,0.42921 2.57498,1.28752 0.2897,-2.68235 1.64156,-4.63501 4.05563,-5.84736 z"
       id="path909-8"
       style="clip-rule:evenodd;fill:#c4bf66;fill-rule:evenodd;stroke-width:0.315437;image-rendering:optimizeQuality;shape-rendering:geometricPrecision;text-rendering:geometricPrecision" />
    <path
       class="fil1"
       d="m 154.1693,105.0335 c 1.21235,-0.99783 2.23159,-2.40341 3.05781,-4.19513 0.8261,-1.791743 1.44842,-2.961256 1.86685,-3.508444 0.41846,-0.54719 1.3519,-0.815468 2.80032,-0.815468 0.96562,0 1.79172,0.33266 2.47842,0.987191 0.69737,0.665162 1.04066,1.502016 1.04066,2.499841 0,0.50422 -0.0858,0.9764 -0.25749,1.41625 0.56873,-0.24674 1.12655,-0.37547 1.67374,-0.37547 0.8584,0 1.55577,0.25749 2.09217,0.77248 0.53656,0.51501 0.79405,1.22313 0.79405,2.12437 0,0.9441 -0.30045,1.78096 -0.90124,2.53204 -0.61157,0.7403 -1.39483,1.3197 -2.36047,1.72737 -0.96562,0.40776 -1.88827,0.61154 -2.76812,0.61154 -1.42701,0 -2.52138,-0.17157 -3.29389,-0.50423 -0.78313,-0.33263 -1.78096,-0.90124 -3.00406,-1.69516 -1.22314,-0.79405 -2.2961,-1.31969 -3.21875,-1.57718 z"
       id="path907-9"
       style="clip-rule:evenodd;fill:#99ae6a;fill-rule:evenodd;stroke-width:0.315437;image-rendering:optimizeQuality;shape-rendering:geometricPrecision;text-rendering:geometricPrecision" />
    <path
       class="fil1"
       d="m 93.952803,59.445867 c 1.21235,-0.997821 2.23159,-2.403409 3.05781,-4.195122 0.8261,-1.791746 1.44842,-2.96126 1.86685,-3.508448 0.41846,-0.547189 1.351897,-0.815468 2.800317,-0.815468 0.96562,0 1.79172,0.33266 2.47842,0.987192 0.69737,0.665162 1.04066,1.502016 1.04066,2.499838 0,0.504226 -0.0858,0.976403 -0.25749,1.416249 0.56873,-0.246735 1.12655,-0.375465 1.67374,-0.375465 0.8584,0 1.55577,0.257491 2.09217,0.772474 0.53656,0.515014 0.79405,1.223138 0.79405,2.124373 0,0.944103 -0.30045,1.780958 -0.90124,2.532045 -0.61157,0.740299 -1.39483,1.319693 -2.36047,1.727366 -0.96562,0.40776 -1.88827,0.61154 -2.76812,0.61154 -1.42701,0 -2.52138,-0.17157 -3.29389,-0.50423 -0.783127,-0.33263 -1.780957,-0.901235 -3.004057,-1.695159 -1.22314,-0.794049 -2.2961,-1.319693 -3.21875,-1.577185 z"
       id="path907-2"
       style="clip-rule:evenodd;fill:#99ae6a;fill-rule:evenodd;stroke-width:0.315437;image-rendering:optimizeQuality;shape-rendering:geometricPrecision;text-rendering:geometricPrecision" />
    <path
       class="fil1"
       d="m 156.21054,130.20875 c 1.21235,-0.99782 2.23159,-2.40341 3.05781,-4.19512 0.8261,-1.79175 1.44842,-2.96126 1.86685,-3.50845 0.41846,-0.54719 1.3519,-0.81547 2.80032,-0.81547 0.96562,0 1.79172,0.33266 2.47842,0.9872 0.69737,0.66516 1.04066,1.50201 1.04066,2.49983 0,0.50423 -0.0858,0.97641 -0.25749,1.41625 0.56873,-0.24673 1.12655,-0.37546 1.67374,-0.37546 0.8584,0 1.55577,0.25749 2.09217,0.77247 0.53656,0.51502 0.79405,1.22314 0.79405,2.12438 0,0.9441 -0.30045,1.78095 -0.90124,2.53204 -0.61157,0.7403 -1.39483,1.31969 -2.36047,1.72737 -0.96562,0.40776 -1.88827,0.61154 -2.76812,0.61154 -1.42701,0 -2.52138,-0.17157 -3.29389,-0.50423 -0.78313,-0.33263 -1.78096,-0.90124 -3.00406,-1.69516 -1.22314,-0.79405 -2.2961,-1.3197 -3.21875,-1.57719 z"
       id="path907-2-0"
       style="clip-rule:evenodd;fill:#99ae6a;fill-rule:evenodd;stroke-width:0.315437;image-rendering:optimizeQuality;shape-rendering:geometricPrecision;text-rendering:geometricPrecision" />
    <path
       class="fil7"
       d="m 51.659043,88.020837 c -0.0858,-0.439845 -0.12873,-1.105165 -0.12873,-2.0064 0,-1.587815 0.28966,-3.111407 0.86906,-4.559831 0.56873,-1.459212 1.35187,-2.735943 2.33903,-3.851738 0.98703,-1.105134 2.11361,-1.974194 3.39031,-2.596551 1.28752,-0.632956 2.60718,-0.944072 3.96984,-0.944072 1.8025,0 3.39044,0.49347 4.76373,1.49126 1.37332,0.987192 2.04924,2.188755 2.04924,3.583585 0,0.836886 -0.18236,1.534223 -0.55782,2.102956 -0.37563,0.55785 -0.84765,0.836886 -1.41625,0.836886 -0.54719,0 -1.21248,-0.214687 -1.99565,-0.643744 -0.78326,-0.429215 -1.52356,-0.761875 -2.19951,-1.019366 -0.6867,-0.246735 -1.69515,-0.375465 -3.03639,-0.375465 -1.44843,0 -2.82171,0.429184 -4.11999,1.287488 3.34751,0.311115 5.97624,0.783261 7.85375,1.39483 1.8884,0.6222 2.8325,1.791714 2.8325,3.508417 0,0.632988 -0.27894,1.148002 -0.84752,1.555672 -0.56873,0.407766 -1.20172,0.611538 -1.9206,0.611538 -1.16942,0 -2.04923,-0.06438 -2.63938,-0.203772 -0.57937,-0.12873 -1.14797,-0.354047 -1.69516,-0.6545 -0.54719,-0.311116 -1.04079,-0.525771 -1.49139,-0.665162 -0.45063,-0.139518 -1.23377,-0.203899 -2.33893,-0.203899 -1.49139,0 -2.7145,0.450602 -3.68014,1.351868 z"
       id="path919-2"
       style="clip-rule:evenodd;fill:#f8c300;fill-rule:evenodd;stroke-width:0.315437;image-rendering:optimizeQuality;shape-rendering:geometricPrecision;text-rendering:geometricPrecision" />
    <path
       class="fil7"
       d="m 115.95801,65.907435 c -0.0858,-0.439845 -0.12873,-1.105165 -0.12873,-2.0064 0,-1.587815 0.28966,-3.111407 0.86906,-4.559831 0.56873,-1.459212 1.35187,-2.735943 2.33903,-3.851738 0.98703,-1.105134 2.11361,-1.974194 3.39031,-2.596551 1.28752,-0.632956 2.60718,-0.944072 3.96984,-0.944072 1.8025,0 3.39044,0.49347 4.76373,1.49126 1.37332,0.987192 2.04924,2.188755 2.04924,3.583585 0,0.836886 -0.18236,1.534223 -0.55782,2.102956 -0.37563,0.55785 -0.84765,0.836886 -1.41625,0.836886 -0.54719,0 -1.21248,-0.214687 -1.99565,-0.643744 -0.78326,-0.429215 -1.52356,-0.761875 -2.19951,-1.019366 -0.6867,-0.246735 -1.69515,-0.375465 -3.03639,-0.375465 -1.44843,0 -2.82171,0.429184 -4.11999,1.287488 3.34751,0.311115 5.97624,0.783261 7.85375,1.39483 1.8884,0.6222 2.8325,1.791714 2.8325,3.508417 0,0.632988 -0.27894,1.148002 -0.84752,1.555672 -0.56873,0.407766 -1.20172,0.611538 -1.9206,0.611538 -1.16942,0 -2.04923,-0.06438 -2.63938,-0.203772 -0.57937,-0.12873 -1.14797,-0.354047 -1.69516,-0.6545 -0.54719,-0.311116 -1.04079,-0.525771 -1.49139,-0.665162 -0.45063,-0.139518 -1.23377,-0.203899 -2.33893,-0.203899 -1.49139,0 -2.7145,0.450602 -3.68014,1.351868 z"
       id="path919-3"
       style="clip-rule:evenodd;fill:#f8c300;fill-rule:evenodd;stroke-width:0.315437;image-rendering:optimizeQuality;shape-rendering:geometricPrecision;text-rendering:geometricPrecision" />
  </g>
</svg>
